# xmcd
# Copyright (C) 1995-1998 Ti Kan
#
# Track frame offsets:
#       150
#       17595
#       32968
#       50480
#       68480
#       82691
#       98125
#       115001
#       131763
#       147137
#
# Disc length: 2176 seconds
#
# Revision: 0
# Processed by: cddbd v1.5.2PL0 Copyright (c) Steve Scherf et al.
# Submitted via: CD-Transfer v1.0
#
DISCID=78087e0a
DTITLE=Olaf Straube - 
DYEAR=07
DGENRE=
TTITLE0=Niemals
TTITLE1=Doch Für Dich
TTITLE2=Nur Wir Beide
TTITLE3=Jäger
TTITLE4=1000 Mal
TTITLE5=But For You
TTITLE6=Das Leben Ist Schön
TTITLE7=Himbeereis Zum Frühstück
TTITLE8=Küss Doch Den Mund
TTITLE9=Durch Tränen Wirst Du Niemals Sehen
EXTD=
EXTT0=
EXTT1=
EXTT2=
EXTT3=
EXTT4=
EXTT5=
EXTT6=
EXTT7=
EXTT8=
EXTT9=
PLAYORDER=
